<svg id="visual" viewBox="0 0 900 600" width="900" height="600" xmlns="http://www.w3.org/2000/svg" xmlns:xlink="http://www.w3.org/1999/xlink" version="1.1"><rect x="0" y="0" width="900" height="600" fill="#038373"></rect><path d="M0 257L21.5 252C43 247 86 237 128.8 226.8C171.7 216.7 214.3 206.3 257.2 208.5C300 210.7 343 225.3 385.8 230.7C428.7 236 471.3 232 514.2 226.3C557 220.7 600 213.3 642.8 214.5C685.7 215.7 728.3 225.3 771.2 224.3C814 223.3 857 211.7 878.5 205.8L900 200L900 0L878.5 0C857 0 814 0 771.2 0C728.3 0 685.7 0 642.8 0C600 0 557 0 514.2 0C471.3 0 428.7 0 385.8 0C343 0 300 0 257.2 0C214.3 0 171.7 0 128.8 0C86 0 43 0 21.5 0L0 0Z" fill="#009569"></path><path d="M0 192L21.5 194.5C43 197 86 202 128.8 200.7C171.7 199.3 214.3 191.7 257.2 192.8C300 194 343 204 385.8 202.7C428.7 201.3 471.3 188.7 514.2 185C557 181.3 600 186.7 642.8 184.2C685.7 181.7 728.3 171.3 771.2 168C814 164.7 857 168.3 878.5 170.2L900 172L900 0L878.5 0C857 0 814 0 771.2 0C728.3 0 685.7 0 642.8 0C600 0 557 0 514.2 0C471.3 0 428.7 0 385.8 0C343 0 300 0 257.2 0C214.3 0 171.7 0 128.8 0C86 0 43 0 21.5 0L0 0Z" fill="#00b07b"></path><path d="M0 132L21.5 130.7C43 129.3 86 126.7 128.8 131.5C171.7 136.3 214.3 148.7 257.2 150.7C300 152.7 343 144.3 385.8 143.7C428.7 143 471.3 150 514.2 154.3C557 158.7 600 160.3 642.8 155C685.7 149.7 728.3 137.3 771.2 134.5C814 131.7 857 138.3 878.5 141.7L900 145L900 0L878.5 0C857 0 814 0 771.2 0C728.3 0 685.7 0 642.8 0C600 0 557 0 514.2 0C471.3 0 428.7 0 385.8 0C343 0 300 0 257.2 0C214.3 0 171.7 0 128.8 0C86 0 43 0 21.5 0L0 0Z" fill="#00cc8e"></path><path d="M0 67L21.5 72.8C43 78.7 86 90.3 128.8 91C171.7 91.7 214.3 81.3 257.2 79.5C300 77.7 343 84.3 385.8 87.7C428.7 91 471.3 91 514.2 91.3C557 91.7 600 92.3 642.8 95.5C685.7 98.7 728.3 104.3 771.2 105.2C814 106 857 102 878.5 100L900 98L900 0L878.5 0C857 0 814 0 771.2 0C728.3 0 685.7 0 642.8 0C600 0 557 0 514.2 0C471.3 0 428.7 0 385.8 0C343 0 300 0 257.2 0C214.3 0 171.7 0 128.8 0C86 0 43 0 21.5 0L0 0Z" fill="#3ad59e"></path><path d="M0 53L21.5 55.7C43 58.3 86 63.7 128.8 65.7C171.7 67.7 214.3 66.3 257.2 64C300 61.7 343 58.3 385.8 52C428.7 45.7 471.3 36.3 514.2 34.8C557 33.3 600 39.7 642.8 39.3C685.7 39 728.3 32 771.2 29.8C814 27.7 857 30.3 878.5 31.7L900 33L900 0L878.5 0C857 0 814 0 771.2 0C728.3 0 685.7 0 642.8 0C600 0 557 0 514.2 0C471.3 0 428.7 0 385.8 0C343 0 300 0 257.2 0C214.3 0 171.7 0 128.8 0C86 0 43 0 21.5 0L0 0Z" fill="#57deae"></path></svg>